<?xml version="1.0" encoding="utf-8"?>
<!-- Generator: Adobe Illustrator 17.1.0, SVG Export Plug-In . SVG Version: 6.00 Build 0)  -->
<!DOCTYPE svg PUBLIC "-//W3C//DTD SVG 1.1//EN" "http://www.w3.org/Graphics/SVG/1.1/DTD/svg11.dtd">
<svg version="1.1" id="Capa_1" xmlns="http://www.w3.org/2000/svg" xmlns:xlink="http://www.w3.org/1999/xlink" x="0px" y="0px"
	 viewBox="-18.4 -105.4 616.3 649.5" enable-background="new -18.4 -105.4 616.3 649.5" xml:space="preserve">
<path fill="#666666" d="M457.4-33.2h-77.9v32.8v11.7c0,11.7-4.4,22.2-12.6,30.4c-8.3,8.3-18.8,12.6-30.4,12.6h-86.4
	c-11.6,0-22.2-4.4-30.4-12.6C211.4,33.5,207,23,207,11.3V-0.4v-32.8h-77.9c-4.4,0-8.3,1.6-11.5,4.9c-3.2,3.3-4.9,7.1-4.9,11.5V410
	c0,4.4,1.6,8.3,4.9,11.5c3.2,3.2,7.1,4.9,11.5,4.9h109.7c-0.4-1.9-0.6-3.8-0.6-5.9v-27v-47.8c0-7.5,2.7-13.9,8.2-19.4
	c5.5-5.4,11.9-8.2,19.4-8.2h55.1c7.5,0,13.9,2.7,19.4,8.2c5.5,5.5,8.2,11.9,8.2,19.4v47.8v27c0,2-0.2,4-0.6,5.9h109.7
	c4.4,0,8.3-1.6,11.5-4.9c3.2-3.3,4.9-7.1,4.9-11.5V-16.8c0-4.4-1.6-8.3-4.9-11.5C465.7-31.6,461.9-33.2,457.4-33.2z M429.7,276.8
	c-2,2-4.3,3-7,3h-19.9c-2.7,0-5-1-7-3c-2-2-3-4.3-3-7v-19.9c0-2.7,1-5,3-7c2-2,4.3-3,7-3h19.9c2.7,0,5,1,7,3c2,2,3,4.3,3,7v19.9
	C432.7,272.5,431.7,274.8,429.7,276.8z M432.7,329.5v19.9c0,2.7-1,5-3,7c-2,2-4.3,3-7,3h-19.9c-2.7,0-5-1-7-3c-2-2-3-4.3-3-7v-19.9
	c0-2.7,1-5,3-7c2-2,4.3-3,7-3h19.9c2.7,0,5,1,7,3C431.7,324.5,432.7,326.9,432.7,329.5z M429.7,197.1c-2,2-4.3,3-7,3h-19.9
	c-2.7,0-5-1-7-3c-2-2-3-4.3-3-7v-19.9c0-2.7,1-5,3-7c2-2,4.3-3,7-3h19.9c2.7,0,5,1,7,3c2,2,3,4.3,3,7v19.9
	C432.7,192.8,431.7,195.2,429.7,197.1z M429.7,117.5c-2,2-4.3,3-7,3h-19.9c-2.7,0-5-1-7-3c-2-2-3-4.3-3-7V90.6c0-2.7,1-5,3-7
	c2-2,4.3-3,7-3h19.9c2.7,0,5,1,7,3c2,2,3,4.3,3,7v19.9C432.7,113.2,431.7,115.5,429.7,117.5z M429.7,37.8c-2,2-4.3,3-7,3h-19.9
	c-2.7,0-5-1-7-3c-2-2-3-4.3-3-7V10.9c0-2.7,1-5,3-7c2-2,4.3-3,7-3h19.9c2.7,0,5,1,7,3c2,2,3,4.3,3,7v19.9
	C432.7,33.5,431.7,35.9,429.7,37.8z M313.2,90.6c0-2.7,1-5,3-7c2-2,4.3-3,7-3h19.9c2.7,0,5,1,7,3c2,2,3,4.3,3,7v19.9c0,2.7-1,5-3,7
	c-2,2-4.3,3-7,3h-19.9c-2.7,0-5-1-7-3c-2-2-3-4.3-3-7V90.6z M313.2,170.2c0-2.7,1-5,3-7c2-2,4.3-3,7-3h19.9c2.7,0,5,1,7,3
	c2,2,3,4.3,3,7v19.9c0,2.7-1,5-3,7c-2,2-4.3,3-7,3h-19.9c-2.7,0-5-1-7-3c-2-2-3-4.3-3-7V170.2z M190.8,276.8c-2,2-4.3,3-7,3h-19.9
	c-2.7,0-5-1-7-3c-2-2-3-4.3-3-7v-19.9c0-2.7,1-5,3-7c2-2,4.3-3,7-3h19.9c2.7,0,5,1,7,3c2,2,3,4.3,3,7v19.9
	C193.7,272.5,192.7,274.8,190.8,276.8z M193.7,329.5v19.9c0,2.7-1,5-3,7c-2,2-4.3,3-7,3h-19.9c-2.7,0-5-1-7-3c-2-2-3-4.3-3-7v-19.9
	c0-2.7,1-5,3-7c2-2,4.3-3,7-3h19.9c2.7,0,5,1,7,3C192.7,324.5,193.7,326.9,193.7,329.5z M190.8,197.1c-2,2-4.3,3-7,3h-19.9
	c-2.7,0-5-1-7-3c-2-2-3-4.3-3-7v-19.9c0-2.7,1-5,3-7c2-2,4.3-3,7-3h19.9c2.7,0,5,1,7,3c2,2,3,4.3,3,7v19.9
	C193.7,192.8,192.7,195.2,190.8,197.1z M190.8,117.5c-2,2-4.3,3-7,3h-19.9c-2.7,0-5-1-7-3c-2-2-3-4.3-3-7V90.6c0-2.7,1-5,3-7
	c2-2,4.3-3,7-3h19.9c2.7,0,5,1,7,3c2,2,3,4.3,3,7v19.9C193.7,113.2,192.7,115.5,190.8,117.5z M190.8,37.8c-2,2-4.3,3-7,3h-19.9
	c-2.7,0-5-1-7-3c-2-2-3-4.3-3-7V10.9c0-2.7,1-5,3-7c2-2,4.3-3,7-3h19.9c2.7,0,5,1,7,3c2,2,3,4.3,3,7v19.9
	C193.7,33.5,192.7,35.9,190.8,37.8z M273.4,269.8c0,2.7-1,5-3,7c-2,2-4.3,3-7,3h-19.9c-2.7,0-5-1-7-3c-2-2-3-4.3-3-7v-19.9
	c0-2.7,1-5,3-7c2-2,4.3-3,7-3h19.9c2.7,0,5,1,7,3c2,2,3,4.3,3,7V269.8z M273.4,190.1c0,2.7-1,5-3,7c-2,2-4.3,3-7,3h-19.9
	c-2.7,0-5-1-7-3c-2-2-3-4.3-3-7v-19.9c0-2.7,1-5,3-7c2-2,4.3-3,7-3h19.9c2.7,0,5,1,7,3c2,2,3,4.3,3,7V190.1z M273.4,110.5
	c0,2.7-1,5-3,7c-2,2-4.3,3-7,3h-19.9c-2.7,0-5-1-7-3c-2-2-3-4.3-3-7V90.6c0-2.7,1-5,3-7c2-2,4.3-3,7-3h19.9c2.7,0,5,1,7,3
	c2,2,3,4.3,3,7V110.5z M343.1,279.8h-19.9c-2.7,0-5-1-7-3c-2-2-3-4.3-3-7v-19.9c0-2.7,1-5,3-7c2-2,4.3-3,7-3h19.9c2.7,0,5,1,7,3
	c2,2,3,4.3,3,7v19.9c0,2.7-1,5-3,7C348.1,278.8,345.8,279.8,343.1,279.8z"/>
<g>
	<g>
		<g>
			<path d="M452.6-26.2H377V5.7V17c0,11.3-4.2,21.5-12.3,29.5c-8,8-18.2,12.3-29.5,12.3h-83.9c-11.3,0-21.5-4.2-29.5-12.3
				c-8-8-12.3-18.2-12.3-29.5V5.7v-31.9h-75.6c-4.3,0-8.1,1.6-11.2,4.7c-3.2,3.2-4.7,6.9-4.7,11.2v414.3c0,4.3,1.6,8,4.7,11.2
				c3.2,3.2,6.9,4.7,11.2,4.7h106.5c-0.4-1.8-0.6-3.7-0.6-5.7v-26.2v-46.4c0-7.2,2.6-13.5,7.9-18.8c5.3-5.3,11.6-7.9,18.8-7.9H320
				c7.2,0,13.5,2.7,18.8,7.9c5.3,5.3,7.9,11.6,7.9,18.8v46.4v26.2c0,2-0.2,3.9-0.6,5.7h106.5c4.3,0,8.1-1.6,11.2-4.7
				c3.2-3.2,4.7-6.9,4.7-11.2V-10.2c0-4.3-1.6-8-4.7-11.2C460.7-24.6,456.9-26.2,452.6-26.2z M425.8,274.8c-1.9,1.9-4.2,2.9-6.8,2.9
				h-19.3c-2.6,0-4.9-1-6.8-2.9c-1.9-1.9-2.9-4.2-2.9-6.8v-19.3c0-2.6,1-4.9,2.9-6.8c1.9-1.9,4.2-2.9,6.8-2.9H419
				c2.6,0,4.9,1,6.8,2.9c1.9,1.9,2.9,4.2,2.9,6.8V268C428.6,270.6,427.7,272.9,425.8,274.8z M428.6,326v19.3c0,2.6-1,4.9-2.9,6.8
				c-1.9,1.9-4.2,2.9-6.8,2.9h-19.3c-2.6,0-4.9-0.9-6.8-2.9c-1.9-1.9-2.9-4.2-2.9-6.8V326c0-2.6,1-4.9,2.9-6.8
				c1.9-1.9,4.2-2.9,6.8-2.9H419c2.6,0,4.9,1,6.8,2.9C427.7,321.1,428.6,323.4,428.6,326z M425.8,197.4c-1.9,1.9-4.2,2.9-6.8,2.9
				h-19.3c-2.6,0-4.9-1-6.8-2.9c-1.9-1.9-2.9-4.2-2.9-6.8v-19.3c0-2.6,1-4.9,2.9-6.8c1.9-1.9,4.2-2.9,6.8-2.9H419
				c2.6,0,4.9,1,6.8,2.9c1.9,1.9,2.9,4.2,2.9,6.8v19.3C428.6,193.3,427.7,195.5,425.8,197.4z M425.8,120.1c-1.9,1.9-4.2,2.9-6.8,2.9
				h-19.3c-2.6,0-4.9-1-6.8-2.9c-1.9-1.9-2.9-4.2-2.9-6.8V94c0-2.6,1-4.9,2.9-6.8c1.9-1.9,4.2-2.9,6.8-2.9H419c2.6,0,4.9,1,6.8,2.9
				c1.9,1.9,2.9,4.2,2.9,6.8v19.3C428.6,115.9,427.7,118.2,425.8,120.1z M425.8,42.8c-1.9,1.9-4.2,2.9-6.8,2.9h-19.3
				c-2.6,0-4.9-0.9-6.8-2.9c-1.9-1.9-2.9-4.2-2.9-6.8V16.6c0-2.6,1-4.9,2.9-6.8c1.9-1.9,4.2-2.9,6.8-2.9H419c2.6,0,4.9,1,6.8,2.9
				c1.9,1.9,2.9,4.2,2.9,6.8V36C428.6,38.6,427.7,40.9,425.8,42.8z M312.6,94c0-2.6,1-4.9,2.9-6.8c1.9-1.9,4.2-2.9,6.8-2.9h19.3
				c2.6,0,4.9,1,6.8,2.9c1.9,1.9,2.9,4.2,2.9,6.8v19.3c0,2.6-1,4.9-2.9,6.8c-1.9,1.9-4.2,2.9-6.8,2.9h-19.3c-2.6,0-4.9-1-6.8-2.9
				c-1.9-1.9-2.9-4.2-2.9-6.8V94z M312.6,171.3c0-2.6,1-4.9,2.9-6.8c1.9-1.9,4.2-2.9,6.8-2.9h19.3c2.6,0,4.9,1,6.8,2.9
				c1.9,1.9,2.9,4.2,2.9,6.8v19.3c0,2.6-1,4.9-2.9,6.8c-1.9,1.9-4.2,2.9-6.8,2.9h-19.3c-2.6,0-4.9-1-6.8-2.9
				c-1.9-1.9-2.9-4.2-2.9-6.8V171.3z M193.7,274.8c-1.9,1.9-4.2,2.9-6.8,2.9h-19.3c-2.6,0-4.9-1-6.8-2.9c-1.9-1.9-2.9-4.2-2.9-6.8
				v-19.3c0-2.6,1-4.9,2.9-6.8c1.9-1.9,4.2-2.9,6.8-2.9h19.3c2.6,0,4.9,1,6.8,2.9c1.9,1.9,2.9,4.2,2.9,6.8V268
				C196.6,270.6,195.6,272.9,193.7,274.8z M196.6,326v19.3c0,2.6-1,4.9-2.9,6.8c-1.9,1.9-4.2,2.9-6.8,2.9h-19.3
				c-2.6,0-4.9-0.9-6.8-2.9c-1.9-1.9-2.9-4.2-2.9-6.8V326c0-2.6,1-4.9,2.9-6.8c1.9-1.9,4.2-2.9,6.8-2.9h19.3c2.6,0,4.9,1,6.8,2.9
				C195.6,321.1,196.6,323.4,196.6,326z M193.7,197.4c-1.9,1.9-4.2,2.9-6.8,2.9h-19.3c-2.6,0-4.9-1-6.8-2.9
				c-1.9-1.9-2.9-4.2-2.9-6.8v-19.3c0-2.6,1-4.9,2.9-6.8c1.9-1.9,4.2-2.9,6.8-2.9h19.3c2.6,0,4.9,1,6.8,2.9c1.9,1.9,2.9,4.2,2.9,6.8
				v19.3C196.6,193.3,195.6,195.5,193.7,197.4z M193.7,120.1c-1.9,1.9-4.2,2.9-6.8,2.9h-19.3c-2.6,0-4.9-1-6.8-2.9
				c-1.9-1.9-2.9-4.2-2.9-6.8V94c0-2.6,1-4.9,2.9-6.8c1.9-1.9,4.2-2.9,6.8-2.9h19.3c2.6,0,4.9,1,6.8,2.9c1.9,1.9,2.9,4.2,2.9,6.8
				v19.3C196.6,115.9,195.6,118.2,193.7,120.1z M193.7,42.8c-1.9,1.9-4.2,2.9-6.8,2.9h-19.3c-2.6,0-4.9-0.9-6.8-2.9
				c-1.9-1.9-2.9-4.2-2.9-6.8V16.6c0-2.6,1-4.9,2.9-6.8c1.9-1.9,4.2-2.9,6.8-2.9h19.3c2.6,0,4.9,1,6.8,2.9c1.9,1.9,2.9,4.2,2.9,6.8
				V36C196.6,38.6,195.6,40.9,193.7,42.8z M273.9,268c0,2.6-1,4.9-2.9,6.8c-1.9,1.9-4.2,2.9-6.8,2.9h-19.3c-2.6,0-4.9-1-6.8-2.9
				c-1.9-1.9-2.9-4.2-2.9-6.8v-19.3c0-2.6,1-4.9,2.9-6.8c1.9-1.9,4.2-2.9,6.8-2.9h19.3c2.6,0,4.9,1,6.8,2.9c1.9,1.9,2.9,4.2,2.9,6.8
				V268z M273.9,190.6c0,2.6-1,4.9-2.9,6.8c-1.9,1.9-4.2,2.9-6.8,2.9h-19.3c-2.6,0-4.9-1-6.8-2.9c-1.9-1.9-2.9-4.2-2.9-6.8v-19.3
				c0-2.6,1-4.9,2.9-6.8c1.9-1.9,4.2-2.9,6.8-2.9h19.3c2.6,0,4.9,1,6.8,2.9c1.9,1.9,2.9,4.2,2.9,6.8V190.6z M273.9,113.3
				c0,2.6-1,4.9-2.9,6.8c-1.9,1.9-4.2,2.9-6.8,2.9h-19.3c-2.6,0-4.9-1-6.8-2.9c-1.9-1.9-2.9-4.2-2.9-6.8V94c0-2.6,1-4.9,2.9-6.8
				c1.9-1.9,4.2-2.9,6.8-2.9h19.3c2.6,0,4.9,1,6.8,2.9c1.9,1.9,2.9,4.2,2.9,6.8V113.3z M341.6,277.7h-19.3c-2.6,0-4.9-1-6.8-2.9
				c-1.9-1.9-2.9-4.2-2.9-6.8v-19.3c0-2.6,1-4.9,2.9-6.8c1.9-1.9,4.2-2.9,6.8-2.9h19.3c2.6,0,4.9,1,6.8,2.9c1.9,1.9,2.9,4.2,2.9,6.8
				V268c0,2.6-1,4.9-2.9,6.8C346.5,276.7,344.2,277.7,341.6,277.7z"/>
			<path d="M235.3,36.2c4.6,3.9,9.9,5.9,16.1,5.9h20.2H315h20.2c6.2,0,11.5-2.1,16.1-5.9c0.6-0.5,1.2-0.9,1.7-1.4
				c4.9-4.9,7.4-10.8,7.4-17.8V5.7v-31.9v-40.7c0-6.9-2.5-12.9-7.4-17.8c-4.9-4.9-10.8-7.4-17.8-7.4h-83.9c-6.9,0-12.9,2.5-17.8,7.4
				c-4.9,4.9-7.4,10.8-7.4,17.8v40.7V5.7V17c0,6.9,2.5,12.9,7.4,17.8C234.1,35.3,234.7,35.7,235.3,36.2z M248.6-26.2V-64
				c0-1.5,0.6-2.8,1.7-3.9c1.1-1.1,2.4-1.7,3.9-1.7h11.2c1.5,0,2.8,0.6,3.9,1.7c1.1,1.1,1.7,2.4,1.7,3.9v28h44.7v-28
				c0-1.5,0.6-2.8,1.7-3.9c1.1-1.1,2.4-1.7,3.9-1.7h11.2c1.5,0,2.8,0.6,3.9,1.7c1.1,1.1,1.7,2.4,1.7,3.9v37.9V5.7V7v7.3
				c0,1.5-0.6,2.8-1.7,3.9c-1.1,1.1-2.4,1.7-3.9,1.7h-11.2c-1.5,0-2.8-0.5-3.9-1.7c-1.1-1.1-1.7-2.4-1.7-3.9V9.7v-4v-19.4h-44.7V5.7
				v4v4.5c0,1.5-0.6,2.8-1.7,3.9c-1.1,1.1-2.4,1.7-3.9,1.7h-11.2c-1.5,0-2.8-0.5-3.9-1.7c-1.1-1.1-1.7-2.4-1.7-3.9V7V5.7L248.6-26.2
				L248.6-26.2z"/>
		</g>
	</g>
</g>
<rect x="-11.4" y="447.3" fill="none" width="609.3" height="96.7"/>
<text transform="matrix(1 0 0 1 -11.3543 516.8303)" font-family="'TimesNewRomanPSMT'" font-size="100">RoomManager</text>
</svg>
